<?xml version="1.0" encoding="UTF-8" standalone="no"?>
<svg
   id="b"
   viewBox="0 0 48 48"
   version="1.1"
   sodipodi:docname="audi_bkk_epa.svg"
   inkscape:version="1.4.3 (0d15f75042, 2025-12-25)"
   xmlns:inkscape="http://www.inkscape.org/namespaces/inkscape"
   xmlns:sodipodi="http://sodipodi.sourceforge.net/DTD/sodipodi-0.dtd"
   xmlns:xlink="http://www.w3.org/1999/xlink"
   xmlns="http://www.w3.org/2000/svg"
   xmlns:svg="http://www.w3.org/2000/svg">
  <sodipodi:namedview
     id="namedview1"
     pagecolor="#404040"
     bordercolor="#000000"
     borderopacity="0.25"
     inkscape:showpageshadow="2"
     inkscape:pageopacity="0.0"
     inkscape:pagecheckerboard="0"
     inkscape:deskcolor="#d1d1d1"
     inkscape:zoom="24"
     inkscape:cx="23.958333"
     inkscape:cy="29"
     inkscape:window-width="2528"
     inkscape:window-height="1327"
     inkscape:window-x="26"
     inkscape:window-y="23"
     inkscape:window-maximized="0"
     inkscape:current-layer="b" />
  <defs
     id="defs1">
    <color-profile
       name="Dell-Inc.-27"
       xlink:href="../../../.local/share/icc/edid-d31c4ae2a9ac119229b4f5fef746a282.icc"
       id="color-profile2" />
    <style
       id="style1">.s{fill:none;stroke:#fff;stroke-linecap:round;stroke-linejoin:round;}</style>
  </defs>
  <g
     id="c"
     transform="translate(0,6.1832008)">
    <circle
       id="d"
       class="s"
       cx="9.5668001"
       cy="17.816799"
       r="6.0668001" />
    <circle
       id="e"
       class="s"
       cx="19.1889"
       cy="17.816799"
       r="6.0668001" />
    <circle
       id="f"
       class="s"
       cx="28.8111"
       cy="17.816799"
       r="6.0668001" />
    <circle
       id="g"
       class="s"
       cx="38.433201"
       cy="17.816799"
       r="6.0668001" />
  </g>
  <g
     id="h"
     transform="translate(0,-23.75)">
    <path
       id="i"
       class="s"
       d="m 18.35,32.25 c 1.1046,0 2,0.8954 2,2 0,1.1046 -0.8954,2 -2,2 h -3.3 v -8 h 3.3 c 1.1046,0 2,0.8954 2,2 0,1.1046 -0.8954,2 -2,2 z" />
    <line
       id="j"
       class="s"
       x1="18.35"
       y1="32.25"
       x2="15.05"
       y2="32.25" />
  </g>
  <g
     id="k"
     transform="translate(-0.25000029,-23.75)">
    <line
       id="l"
       class="s"
       x1="22.35"
       y1="28.25"
       x2="22.35"
       y2="36.25" />
    <polyline
       id="m"
       class="s"
       points="26.65 36.25 23.3561 32.25 26.65 28.2769" />
    <line
       id="n"
       class="s"
       x1="23.3561"
       y1="32.25"
       x2="22.35"
       y2="32.25" />
  </g>
  <g
     id="o"
     transform="translate(0,-23.75)">
    <line
       id="p"
       class="s"
       x1="28.65"
       y1="28.25"
       x2="28.65"
       y2="36.25" />
    <polyline
       id="q"
       class="s"
       points="32.95 36.25 29.6561 32.25 32.95 28.2769" />
    <line
       id="r"
       class="s"
       x1="29.656099"
       y1="32.25"
       x2="28.65"
       y2="32.25" />
  </g>
  <path
     class="r"
     d="M 18.78777,40.490715 C 18.4433,41.093633 17.79411,41.5 17.05,41.5 h -10e-6 C 15.94542,41.5 15.05,40.60457 15.05,39.500002 V 38.199998 C 15.05,37.09543 15.94542,36.2 17.04999,36.2 h 10e-6 c 1.10457,0 2,0.89543 2,1.999998 V 38.85 c 0,0 -4,0 -4,0"
     id="path77"
     style="fill:none;stroke:#ffffff;stroke-linecap:round;stroke-linejoin:round" />
  <path
     class="r"
     d="m 21.429167,41.5 v -8 h 2.61904 c 1.48065,0 2.68096,1.202894 2.68096,2.68674 0,1.483845 -1.20031,2.68674 -2.68096,2.68674 h -2.61904"
     id="path16"
     style="fill:none;stroke:#ffffff;stroke-linecap:round;stroke-linejoin:round" />
  <g
     id="g1"
     transform="translate(0,-4.3749376)">
    <line
       class="r"
       x1="32.880508"
       y1="43.224892"
       x2="29.336159"
       y2="43.224892"
       id="line241"
       style="fill:none;stroke:#ffffff;stroke-linecap:round;stroke-linejoin:round" />
    <polyline
       class="r"
       points="87.18380544 48.65004656 89.83380544 40.65 92.48380544 48.65004656"
       id="polyline241"
       style="fill:none;stroke:#ffffff;stroke-linecap:round;stroke-linejoin:round"
       transform="translate(-58.725472,-2.775109)" />
  </g>
</svg>
