<svg width="48" height="48" viewBox="0 0 48 48" fill="none" xmlns="http://www.w3.org/2000/svg">
<path d="M19.8557 6.24975C18.6262 6.13547 17.3532 6.101 16.2801 6.24975C16.2801 17.4052 18.327 28.0489 26.2075 41.3536C26.453 41.2727 26.6859 41.1879 26.9081 41.0994M19.8557 6.24975C19.4582 9.16124 18.7373 15.6684 19.0348 18.4051C19.4066 21.826 23.2737 24.2057 24.3892 26.8086C25.2816 28.8909 26.4403 37.2034 26.9081 41.0994M19.8557 6.24975C21.1584 6.37083 22.4122 6.58149 23.328 6.75881M26.9081 41.0994C28.4856 40.4705 29.5179 39.6546 30.6698 38.7503M23.328 6.75881C24.2071 6.92902 24.7746 7.0685 24.7746 7.0685C24.7746 14.4372 26.2075 25.4903 33.6785 36.6458C32.4331 37.3689 31.519 38.0836 30.6698 38.7503M23.328 6.75881C23.1478 9.3023 22.8955 14.9842 23.328 17.364C23.8687 20.3386 25.2559 22.2023 26.2075 25.3956C27.3474 29.2209 27.3697 33.2052 28.4794 35.3608C29.2007 36.762 30.0388 38.0488 30.6698 38.7503" stroke="white" stroke-linejoin="round"/>
</svg>
