<svg width="48" height="48" viewBox="0 0 48 48" fill="none" xmlns="http://www.w3.org/2000/svg">
<path d="M16.1193 34.2519C17.0525 34.0896 17.7078 33.2376 17.9189 32.8319M16.8858 35.3676C17.7123 35.3676 18.4965 34.3533 18.7854 33.8462M18.4188 36.01C18.712 36.0641 19.2297 35.7846 19.4519 35.6381M15.5528 33.2038C15.0996 31.9326 15.0307 31.4344 15.0529 31.3443M38.9137 34.1842L37.5474 32.9671M38.1806 35.1309L36.8809 33.9138M37.3141 35.8747L36.4143 34.928" stroke="white" stroke-linecap="round" stroke-linejoin="round"/>
<path d="M9.6395 32.6992L10.8286 36.1251C10.932 36.4229 11.2819 36.5519 11.5539 36.3925L14.8643 34.4519M15.8016 36.1161L11.2733 39.4682C10.8473 39.7835 10.2513 39.7104 9.93553 39.2847C9.19258 38.2833 7.96003 36.4548 7.6306 34.9488" stroke="white" stroke-linecap="round" stroke-linejoin="round"/>
<path d="M8.6801 31.7602V11.469C8.6801 10.6136 9.22551 9.85853 10.0538 9.64478C12.3795 9.04457 17.5614 7.97006 24.8536 7.97006C31.6371 7.97006 35.7492 8.56177 37.7228 8.95179C38.5791 9.12101 39.1465 9.88005 39.1465 10.7529V26.4944M11.5011 33.7574V17.7764C11.5011 17.2196 11.7373 16.6911 12.2141 16.4037C13.6729 15.5244 17.5616 13.7767 25.6059 13.612C33.757 13.4451 36.6222 14.8713 37.5365 15.5794C37.8204 15.7993 37.9241 16.1523 37.9241 16.5115V25.1779M15.8265 30.2557C15.7818 27.7188 17.084 25.8829 19.0432 24.623M32.2821 30.8199C32.2821 30.6222 31.9902 30.1743 30.6246 29.906M32.2821 30.8199C34.8286 30.4982 38.4528 29.906 37.684 25.5569M32.2821 30.8199C32.2821 30.893 32.1855 30.9799 31.9951 31.0691M23.3047 30.8199C23.3047 30.9445 23.6104 31.109 24.1855 31.2565M23.3047 30.8199C23.3047 30.7424 23.3593 30.6266 23.5102 30.4982M23.3047 30.8199C22.7743 31.8363 21.5781 33.4598 20.0197 34.2105M21.4685 10.0388C21.4685 10.0388 22.4997 11.2211 25.6059 11.3552C28.712 11.4894 30.1194 10.0388 30.1194 10.0388M24.4596 22.6735C25.5899 22.4784 26.7439 22.3765 27.8626 22.357C29.8089 22.323 31.8556 22.6945 33.7167 23.3754M24.4596 22.6735C24.4596 25.2522 24.9042 28.9059 26.5136 29.7322M24.4596 22.6735C22.4736 23.0163 20.5612 23.6468 19.0432 24.623M26.5136 29.7322C26.9141 29.7061 27.362 29.6915 27.8626 29.6915C29.0824 29.6915 29.975 29.7784 30.6246 29.906M26.5136 29.7322C24.691 29.851 23.8526 30.2069 23.5102 30.4982M33.7167 23.3754C33.9286 25.4353 32.32 28.9922 30.6246 29.906M33.7167 23.3754C35.2071 23.9206 36.5785 24.6642 37.684 25.5569M37.684 25.5569C39.2948 26.8576 40.3413 28.4747 40.3689 30.2557C40.3844 31.2534 40.0414 32.2163 39.4329 33.1065M31.9951 31.0691C31.6879 31.213 31.1366 31.3627 30.3536 31.47M31.9951 31.0691C32.1848 32.1125 33.814 33.6567 35.28 34.5691M30.3536 31.47C29.6881 31.5611 28.8552 31.6216 27.8626 31.6216C26.2111 31.6216 24.9563 31.4543 24.1855 31.2565M30.3536 31.47C30.2814 34.1639 30.8476 37.0483 32.2821 37.6013M32.2821 37.6013C30.5832 38.068 28.7954 38.2783 27.1104 38.1544C25.3618 38.0257 23.5642 37.7131 21.9322 37.1639M32.2821 37.6013C33.6187 37.2342 34.9002 36.7083 36.0335 36.0618M24.1855 31.2565C24.112 34.9921 22.6527 36.7513 21.9322 37.1639M21.9322 37.1639C21.3509 36.9682 20.7905 36.7426 20.2608 36.4845M23.5102 30.4982C18.7663 30.5987 18.8283 25.8706 19.0432 24.623" stroke="white" stroke-linecap="round" stroke-linejoin="round"/>
<circle cx="17.6763" cy="10.4374" r="0.75" fill="white"/>
<circle cx="34.1096" cy="10.4374" r="0.75" fill="white"/>
</svg>
