<?xml version="1.0" encoding="UTF-8" standalone="no"?>
<!-- Created with Inkscape (http://www.inkscape.org/) -->

<svg
   width="48"
   height="48"
   viewBox="0 0 48 48"
   version="1.1"
   id="svg1"
   xml:space="preserve"
   inkscape:version="1.4.3 (0d15f75042, 2025-12-25)"
   sodipodi:docname="denns_bio.svg"
   xmlns:inkscape="http://www.inkscape.org/namespaces/inkscape"
   xmlns:sodipodi="http://sodipodi.sourceforge.net/DTD/sodipodi-0.dtd"
   xmlns:xlink="http://www.w3.org/1999/xlink"
   xmlns="http://www.w3.org/2000/svg"
   xmlns:svg="http://www.w3.org/2000/svg"><sodipodi:namedview
     id="namedview1"
     pagecolor="#4c4c4c"
     bordercolor="#000000"
     borderopacity="0.25"
     inkscape:showpageshadow="2"
     inkscape:pageopacity="0.0"
     inkscape:pagecheckerboard="0"
     inkscape:deskcolor="#d1d1d1"
     inkscape:document-units="px"
     inkscape:zoom="11.958333"
     inkscape:cx="24.041812"
     inkscape:cy="30.10453"
     inkscape:window-width="1256"
     inkscape:window-height="1331"
     inkscape:window-x="26"
     inkscape:window-y="23"
     inkscape:window-maximized="0"
     inkscape:current-layer="layer1" /><defs
     id="defs1"><color-profile
       name="ASUSTek-COMPUTER-INC-27"
       xlink:href="../../../.local/share/icc/edid-81a81f51c754fb3d1eec6c89e317bb2d.icc"
       id="color-profile2" /><style
       id="style1">.b{fill:none;stroke:#fff;stroke-linecap:round;stroke-linejoin:round;}</style></defs><g
     inkscape:label="Ebene 1"
     inkscape:groupmode="layer"
     id="layer1"><g
       id="g4"
       transform="matrix(1.155,0,0,1.155,-8.5220333,-1.7015439)"><path
         class="r"
         d="M 9.8623693,14.977703 V 6.9777023 h 1.7999997 c 1.93299,0 3.5,1.567003 3.5,3.4999997 v 1.000001 c 0,1.932996 -1.56701,3.5 -3.5,3.5 z"
         id="path76"
         style="fill:none;stroke:#ffffff;stroke-linecap:round;stroke-linejoin:round" /><path
         class="r"
         d="m 22.722757,13.968418 c -0.34447,0.602918 -0.99366,1.009285 -1.73777,1.009285 h -10e-6 c -1.10457,0 -1.99999,-0.89543 -1.99999,-1.999998 v -1.300004 c 0,-1.104567 0.89542,-1.9999973 1.99999,-1.9999973 h 10e-6 c 1.10457,0 2,0.8954303 2,1.9999973 v 0.650002 c 0,0 -4,0 -4,0"
         id="path77"
         style="fill:none;stroke:#ffffff;stroke-linecap:round;stroke-linejoin:round" /><g
         id="g2"
         transform="translate(0.2135275,1)"><path
           class="r"
           d="m 30.594077,13.977702 v -3.3 c 0,-1.1045686 -0.89543,-1.9999996 -2,-1.9999996 h -10e-6 c -1.10457,0 -1.99999,0.89543 -1.99999,1.9999976"
           id="path72"
           style="fill:none;stroke:#ffffff;stroke-linecap:round;stroke-linejoin:round" /><line
           class="r"
           x1="26.594078"
           y1="13.977703"
           x2="26.594078"
           y2="8.6777"
           id="line72"
           style="fill:none;stroke:#ffffff;stroke-linecap:round;stroke-linejoin:round" /></g><g
         id="g3"
         transform="translate(-0.96385475)"><path
           class="r"
           d="m 39.594077,14.977702 v -3.3 c 0,-1.104569 -0.89543,-1.9999996 -2,-1.9999996 h -10e-6 c -1.10457,0 -1.99999,0.8954296 -1.99999,1.9999976"
           id="path72-1"
           style="fill:none;stroke:#ffffff;stroke-linecap:round;stroke-linejoin:round" /><line
           class="r"
           x1="35.594082"
           y1="14.977703"
           x2="35.594082"
           y2="9.6777"
           id="line72-2"
           style="fill:none;stroke:#ffffff;stroke-linecap:round;stroke-linejoin:round" /></g><path
         class="r"
         d="m 43.03713,14.530545 c 0.36517,0.306646 0.75944,0.447158 1.64487,0.447158 h 0.44869 c 0.7302,0 1.32215,-0.593222 1.32215,-1.324998 v -3e-6 c 0,-0.731777 -0.59195,-1.324999 -1.32215,-1.324999 H 44.2333 c -0.7302,0 -1.32215,-0.593222 -1.32215,-1.324999 v -2e-6 c 0,-0.731777 0.59195,-1.3249991 1.32215,-1.3249991 h 0.4487 c 0.88542,0 1.27969,0.140513 1.64486,0.4471581"
         id="path52"
         style="fill:none;stroke:#ffffff;stroke-linecap:round;stroke-linejoin:round" /></g><g
       id="g6"
       transform="translate(2.6026748,2)"><g
         id="g5"><path
           class="r"
           d="m 12.702217,28.228223 c 1.956796,0 3.543122,1.586309 3.543122,3.543122 0,1.956812 -1.586326,3.543122 -3.543122,3.543122 H 6.8560585 V 21.141979 l 5.8461585,4e-6 c 1.956796,0 3.543122,1.58631 3.543122,3.543122 0,1.956813 -1.586326,3.543122 -3.543122,3.543122 z"
           id="path93"
           style="fill:none;stroke:#ffffff;stroke-width:1.77156;stroke-linecap:round;stroke-linejoin:round" /><line
           class="r"
           x1="12.702207"
           y1="28.228226"
           x2="6.856061"
           y2="28.228226"
           id="line93"
           style="fill:none;stroke:#ffffff;stroke-width:1.77156;stroke-linecap:round;stroke-linejoin:round" /></g><line
         class="r"
         x1="21.973083"
         y1="26.145477"
         x2="21.973083"
         y2="35.534748"
         id="line51"
         style="fill:none;stroke:#ffffff;stroke-width:1.331;stroke-linecap:round;stroke-linejoin:round" /><path
         class="r"
         d="m 28.852348,29.468317 c 0,-1.956813 1.586309,-3.543122 3.543122,-3.543122 1.956813,0 3.543122,1.586309 3.543122,3.543122 v 2.303028 c 0,1.956812 -1.586309,3.543122 -3.543122,3.543122 -1.956813,0 -3.543122,-1.58631 -3.543122,-3.543122 z"
         id="path306"
         style="fill:none;stroke:#ffffff;stroke-width:1.77156;stroke-linecap:round;stroke-linejoin:round" /></g><path
       id="path7"
       d="m 28.210452,25.318924 c 0,1.25246 -1.295665,-0.700343 -4.552192,-0.700343 -3.256526,0 -4.704949,-3.349797 -4.704949,-4.602257 0,-1.252461 1.448423,0.0667 4.704949,0.0667 3.256527,0 4.552192,3.983442 4.552192,5.235902 z"
       sodipodi:nodetypes="sscss"
       style="fill:#ffffff;stroke-width:0.948683;stroke-dasharray:none" /><path
       id="path7-2"
       d="m 29.512334,25.135151 c 0,1.25246 1.74195,-0.700343 6.120169,-0.700343 4.37822,0 6.325544,-3.349797 6.325544,-4.602257 0,-1.252461 -1.947324,0.0667 -6.325544,0.0667 -4.378219,0 -6.120169,3.983442 -6.120169,5.235902 z"
       sodipodi:nodetypes="sscss"
       style="fill:#ffffff;stroke-width:1.1;stroke-dasharray:none" /></g></svg>
