<?xml version="1.0" encoding="UTF-8" standalone="no"?>
<!DOCTYPE svg PUBLIC "-//W3C//DTD SVG 1.1//EN" "http://www.w3.org/Graphics/SVG/1.1/DTD/svg11.dtd">
<svg width="100%" height="100%" viewBox="0 0 48 48" version="1.1" xmlns="http://www.w3.org/2000/svg" xmlns:xlink="http://www.w3.org/1999/xlink" xml:space="preserve" xmlns:serif="http://www.serif.com/" style="fill-rule:evenodd;clip-rule:evenodd;stroke-linecap:round;stroke-linejoin:round;">
    <g transform="matrix(0.24,0,0,0.24,24,24)">
        <g transform="matrix(1,0,0,1,-100,-100)">
            <g transform="matrix(4.166667,0,0,4.166667,0,0)">
                <path d="M42.5,9.5L42.5,38.5C42.5,40.708 40.708,42.5 38.5,42.5L9.5,42.5C7.292,42.5 5.5,40.708 5.5,38.5L5.5,9.5C5.5,7.292 7.292,5.5 9.5,5.5L38.5,5.5C40.708,5.5 42.5,7.292 42.5,9.5Z" style="fill:none;stroke:white;stroke-width:1px;"/>
            </g>
        </g>
        <g transform="matrix(4.166667,0,0,4.166667,-100,-100)">
            <path d="M15.045,20.185C15.045,20.185 28.161,22.607 31.072,22.581C33.984,22.555 35.092,22.452 35.169,21.963C35.247,21.473 35.221,19.953 32.026,20.339C28.831,20.726 28.191,21.461 27.042,22.177" style="fill:none;stroke:white;stroke-width:1px;stroke-miterlimit:1.5;"/>
        </g>
        <g transform="matrix(4.166667,0,0,4.166667,-100,-100)">
            <path d="M23.419,21.383C23.419,21.383 26.561,16.665 32.077,17.093C35.736,17.376 39.053,18.477 38.365,23.174C37.8,27.029 27.233,25.544 26.537,25.596C25.841,25.648 28.494,28.276 31.639,28.276C32.18,28.276 33.273,28.12 33.778,28.06C34.216,28.009 35.791,27.504 35.968,28.447C36.277,30.096 34.415,30.709 32,30.946C30.847,31.059 24.924,31.414 22.904,25.355C22.852,25.2 19.863,24.968 19.863,24.968C19.863,24.968 20.476,28.147 20.533,28.473C20.817,30.083 19.068,31.627 18.008,28.962C17.819,28.487 17.801,28.184 17.441,26.617C17.266,25.852 17.384,24.079 13.086,24C8.703,23.919 8.92,19.551 12.829,19.789L15.045,20.185" style="fill:none;stroke:white;stroke-width:1px;stroke-miterlimit:1.5;"/>
        </g>
    </g>
</svg>
