<?xml version="1.0" encoding="UTF-8" standalone="no"?>
<svg
   id="Layer_1"
   data-name="Layer 1"
   version="1.1"
   viewBox="0 0 48 48"
   xml:space="preserve"
   xmlns="http://www.w3.org/2000/svg"
   xmlns:svg="http://www.w3.org/2000/svg"><defs
     id="defs1"><style
       id="style1">
      .cls-1 {
        fill: none;
        stroke: #fff;
        stroke-linecap: round;
        stroke-linejoin: round;
      }
    </style></defs><rect
     class="cls-1"
     x="5.5"
     y="5.5"
     width="37"
     height="37"
     rx="4"
     ry="4"
     id="rect1"
     style="display:inline" /><path
     style="fill:none;stroke:#ffffff;stroke-width:1;stroke-linecap:round;stroke-linejoin:round"
     d="M 14.22675,42.490842 C 12.729491,41.330468 11.832041,39.321149 9.6868487,39.077832 L 6.2032609,33.801139 C 4.8922332,31.638069 5.4091527,29.774386 7.7540193,28.21009 10.80332,26.528919 10.765442,27.770347 14.518922,25.538062 l 7.124499,-5.860496 c 1.296044,-1.055338 2.562122,-1.15264 3.798234,-0.291903 0.561869,0.479019 1.093772,0.718529 1.595708,0.718529 l 10.158591,10.104305 c 1.782998,2.237917 1.528284,4.206385 -0.764142,5.905405 -3.318772,1.466996 -6.607579,3.592642 -9.866419,6.37694"
     id="path1" /><path
     style="fill:none;stroke:#ffffff;stroke-width:1;stroke-linecap:round;stroke-linejoin:round"
     d="m 22.744684,25.852419 c 3.158519,1.113754 4.663983,2.227945 4.337628,4.356078"
     id="path2" /><path
     style="fill:none;stroke:#ffffff;stroke-width:1;stroke-linecap:round;stroke-linejoin:round"
     d="m 42.499997,22.394502 c -2.222398,-1.072644 -3.915163,-2.753513 -5.789121,-4.290317 -1.141212,-0.935891 -2.575857,-1.5782 -3.582854,-2.692882 -1.194546,-1.034935 -2.665272,-0.869086 -3.64091,0.112271 -1.310598,1.182466 -2.014558,2.337385 -4.529899,3.574562"
     id="path3" /><path
     style="fill:none;stroke:#ffffff;stroke-width:1;stroke-linecap:round;stroke-linejoin:round"
     d="m 38.264035,33.753458 4.235962,-2.377353"
     id="path4" /><path
     style="fill:none;stroke:#ffffff;stroke-width:1;stroke-linecap:round;stroke-linejoin:round"
     d="m 36.768934,20.598181 c 3.138237,3.233507 3.564068,2.681411 1.37096,4.445894 -2.484049,1.99856 -2.63403,2.638208 -5.933336,-0.875707 -2.779302,-2.960087 -2.752942,-3.123538 -0.764142,-4.288716 2.564183,-1.502276 4.035214,-0.611976 5.326518,0.718529 z"
     id="path5" /></svg>
