<?xml version="1.0" encoding="UTF-8" standalone="no"?>
<svg
   version="1.1"
   width="48"
   height="48"
   id="svg1102"
   sodipodi:docname="mom-1.svg"
   inkscape:version="1.4.3 (0d15f75042, 2025-12-25)"
   xml:space="preserve"
   xmlns:inkscape="http://www.inkscape.org/namespaces/inkscape"
   xmlns:sodipodi="http://sodipodi.sourceforge.net/DTD/sodipodi-0.dtd"
   xmlns="http://www.w3.org/2000/svg"
   xmlns:svg="http://www.w3.org/2000/svg"><defs
     id="defs1102" /><sodipodi:namedview
     id="namedview1102"
     pagecolor="#000000"
     bordercolor="#000000"
     borderopacity="0.25"
     inkscape:showpageshadow="2"
     inkscape:pageopacity="0.0"
     inkscape:pagecheckerboard="0"
     inkscape:deskcolor="#d1d1d1"
     inkscape:zoom="6.213797"
     inkscape:cx="-10.138728"
     inkscape:cy="39.106524"
     inkscape:window-width="1920"
     inkscape:window-height="1164"
     inkscape:window-x="0"
     inkscape:window-y="0"
     inkscape:window-maximized="1"
     inkscape:current-layer="svg1102" /><path
     style="display:inline;fill:none;fill-opacity:1;stroke:#ffffff;stroke-width:1;stroke-linecap:round;stroke-linejoin:round;stroke-dasharray:none;stroke-opacity:1"
     d="m 24.766031,6.7987028 c 4.901782,0.319564 8.808571,2.4832236 11.39176,5.7105682 m 2.697335,5.067807 c 1.152859,3.606206 1.131808,7.772443 -0.29643,11.944703 -0.216989,0.633883 1.675608,1.691686 1.513034,2.938391 -0.460968,3.534951 -2.983998,3.137334 -5.676786,2.474488 -1.103546,-0.271645 -3.255228,0.712886 -3.242598,3.681588 m -3.353361,4.287861 C 26.700372,43.174328 25.405046,43.341309 24,43.379191 19.62992,43.257492 16.321264,41.890776 16.691402,40.053363 16.832291,39.353974 16.871873,38.734931 16.83434,38.190752 M 8.6338488,34.431089 C 8.2889518,33.981426 8.0438231,33.342417 7.92827,32.456294 7.765696,31.209589 9.6582929,30.151786 9.4413036,29.517903 8.8342374,27.744503 8.4719559,25.97219 8.3395078,24.243523"
     id="path1103"
     sodipodi:nodetypes="cccssscccsccssc"
     inkscape:label="calavera" /><path
     style="display:inline;fill:none;stroke:#ffffff;stroke-width:1;stroke-linecap:round;stroke-linejoin:round;stroke-dasharray:none;stroke-opacity:1"
     d="M 26.059675,35.08119 C 26.929064,33.567114 25.774585,30.189361 24,28.499981 c -1.774585,1.689837 -2.929064,5.06759 -2.059675,6.581666 0.897818,0.140542 1.312617,-1.055062 2.059675,-1.519174 0.747058,0.463655 1.161857,1.659259 2.059675,1.518717 z"
     id="path1109"
     sodipodi:nodetypes="ccccc"
     inkscape:label="nariz" /><path
     style="display:inline;fill:none;stroke:#ffffff;stroke-linecap:round;stroke-linejoin:round;stroke-opacity:1"
     d="m 29.885602,20.887431 c -0.412249,-0.0082 -4.7387,2.776146 -2.437631,5.966115 1.266814,1.756183 3.756612,3.20699 5.886278,2.815176 1.738401,-0.31983 3.226132,-1.711839 3.518971,-3.45499 0.135708,-0.807818 0.148864,-2.519303 -0.838453,-3.58122 -1.658537,-1.380628 -4.025672,-1.685376 -6.129165,-1.745081 z"
     id="path1"
     sodipodi:nodetypes="cssssc"
     inkscape:label="ojoder" /><g
     id="g11"
     inkscape:label="dientes"
     transform="translate(0,-2.0654186)"><path
       style="fill:#000000;fill-opacity:1;stroke:#ffffff;stroke-linecap:round;stroke-linejoin:round;stroke-opacity:1"
       d="m 24,43.29114 v 1.998937"
       id="path3"
       sodipodi:nodetypes="cc" /><path
       style="fill:#000000;fill-opacity:1;stroke:#ffffff;stroke-linecap:round;stroke-linejoin:round;stroke-opacity:1"
       d="m 21.5,42.175095 v 2.800269"
       id="path6"
       sodipodi:nodetypes="cc" /><path
       style="fill:#000000;fill-opacity:1;stroke:#ffffff;stroke-linecap:round;stroke-linejoin:round;stroke-opacity:1"
       d="m 19,41.196829 v 3.026143"
       id="path7"
       sodipodi:nodetypes="cc" /></g><path
     style="display:inline;fill:none;fill-opacity:1;stroke:#ffffff;stroke-width:1;stroke-linecap:round;stroke-linejoin:round;stroke-dasharray:none;stroke-opacity:1"
     d="M 6.306877,19.057214 C 3.4983925,8.2567484 15.066647,0.0864256 25.36549,7.2527342 c 3.152821,2.1938472 7.015861,4.9479568 10.160918,5.3252558 3.145058,0.377299 1.831378,-3.8403426 -2.506477,-7.8621622 6.4138,2.3924774 7.947911,7.4215242 7.701984,10.0226382 -0.245927,2.601114 -4.127258,5.469492 -10.643202,1.509472 -6.515945,-3.96002 -10.605944,-5.577479 -14.284494,-4.106995 -3.678551,1.470485 -4.173971,6.047014 -0.196587,8.922529 0.866075,-0.0943 1.71086,-0.153162 2.51693,-0.176041 0.412249,-0.0082 4.7387,2.776146 2.437631,5.966115 -1.266814,1.756183 -3.756612,3.206991 -5.886278,2.815176 -1.038462,-0.191056 -2.407418,-1.412121 -2.407418,-1.412121 0,0 -3.9571599,-1.529379 -5.95162,-9.199387 z"
     id="path10"
     sodipodi:nodetypes="zszczzzccsscz"
     inkscape:label="tentaculoojo" /><path
     style="fill:none;fill-opacity:1;stroke:#ffffff;stroke-linecap:round;stroke-linejoin:round;stroke-opacity:1"
     d="m 33.290414,35.087869 c 3.122901,8.241837 -11.302427,0.106227 -13.939226,-0.849699 -3.494584,-1.266902 -6.426274,-1.861748 -10.303135,0.417927 -3.876861,2.279675 -1.5390955,8.052782 4.800914,7.945296 -5.8251645,-1.369484 -3.3463,-6.475096 2.036091,-4.755719 5.382392,1.719377 6.956391,2.771899 11.483395,4.857496 2.503339,1.153292 8.007293,1.062265 10.339649,-1.016571 1.885444,-1.680501 0.929381,-5.180154 0.653646,-6.303611"
     id="path11"
     sodipodi:nodetypes="cszczssc"
     inkscape:label="tentaculo2" /></svg>
