<svg width="48" height="48" viewBox="0 0 48 48" fill="none" xmlns="http://www.w3.org/2000/svg">
<path d="M23.995 10.0724C27.545 10.0724 30.4306 12.9782 30.4306 16.5724C30.4306 20.1666 27.545 23.0724 23.995 23.0724C20.4451 23.0723 17.5595 20.1666 17.5595 16.5724C17.5595 12.9782 20.4451 10.0725 23.995 10.0724Z" stroke="white"/>
<path d="M30.6426 22.9996C31.5955 24.143 31.9365 27.3628 30.3064 28.8304" stroke="white" stroke-linecap="round" stroke-linejoin="round"/>
<path d="M18.3652 27.8272C17.568 26.8621 17.5349 24.4334 17.4563 23.2183M9.04892 38.4276C9.04892 34.0018 10.5877 26.8223 15.1297 24.7502" stroke="white" stroke-linecap="round" stroke-linejoin="round"/>
<path d="M38.9511 38.4276C38.9511 34.1492 37.513 27.2975 33.3142 24.974" stroke="white" stroke-linecap="round" stroke-linejoin="round"/>
<circle cx="23.2216" cy="31.6519" r="1" stroke="white"/>
<circle cx="26.8362" cy="35.3433" r="1" stroke="white"/>
<path d="M23.6453 30.6138C24.4363 28.3099 27.9968 26.4137 30.149 28.8304C32.3012 31.2472 29.677 34.3901 27.7888 34.967" stroke="white" stroke-linejoin="round"/>
<circle cx="19.2919" cy="29.1685" r="1.5" stroke="white"/>
</svg>
