<svg width="48" height="48" viewBox="0 0 48 48" fill="none" xmlns="http://www.w3.org/2000/svg">
<path d="M20.101 14.7159C16.0945 13.9836 14.8924 19.0783 11.4799 22.6983C10.6529 23.5756 10.9391 18.4433 9.11917 18.1537C7.29919 17.8642 6.2154 19.7843 5.29636 22.7762C7.03404 22.7762 4.73468 30.3559 9.6555 30.9188C13.056 31.3078 15.9855 23.0769 16.73 24.5035C17.4745 25.93 17.0391 34.0841 21.3087 33.4075C24.7711 32.8587 27.6476 25.7036 29.718 25.93C31.3177 26.1049 32.4759 32.668 37.1889 32.1013C39.0106 31.8822 42.1015 27.3184 42.7861 24.912C41.2303 24.0823 38.7505 26.1006 37.3606 25.6327C34.3336 24.6137 36.1814 17.2645 31.7884 16.4176C28.4505 15.7742 24.0896 24.7784 23.0553 24.5035C21.3087 24.0392 23.7394 15.381 20.101 14.7159Z" stroke="white" stroke-linejoin="round"/>
</svg>
