<svg width="48" height="48" viewBox="0 0 48 48" fill="none" xmlns="http://www.w3.org/2000/svg">
<circle cx="37.0049" cy="21.135" r="0.75" fill="white"/>
<circle cx="11.024" cy="21.135" r="0.75" fill="white"/>
<circle cx="11.024" cy="26.8731" r="0.75" fill="white"/>
<circle cx="37.0049" cy="26.8731" r="0.75" fill="white"/>
<circle cx="21.1454" cy="11.0136" r="0.75" fill="white"/>
<circle cx="26.8835" cy="11.0136" r="0.75" fill="white"/>
<circle cx="26.8835" cy="36.9944" r="0.75" fill="white"/>
<circle cx="21.1454" cy="36.9944" r="0.75" fill="white"/>
<circle cx="21.1454" cy="15.3326" r="1.25" stroke="white"/>
<circle cx="26.8835" cy="15.3326" r="1.25" stroke="white"/>
<circle cx="32.6215" cy="15.3326" r="1.25" stroke="white"/>
<circle cx="15.4074" cy="15.3326" r="1.25" stroke="white"/>
<circle cx="15.4074" cy="21.135" r="1.25" stroke="white"/>
<circle cx="15.4074" cy="26.8731" r="1.25" stroke="white"/>
<circle cx="15.4074" cy="32.6111" r="1.25" stroke="white"/>
<circle cx="21.1454" cy="32.6111" r="1.25" stroke="white"/>
<circle cx="26.8835" cy="32.6111" r="1.25" stroke="white"/>
<circle cx="32.6215" cy="32.6111" r="1.25" stroke="white"/>
<circle cx="32.6215" cy="26.8731" r="1.25" stroke="white"/>
<circle cx="32.6215" cy="21.1029" r="1.25" stroke="white"/>
<circle cx="26.8835" cy="21.135" r="2" stroke="white"/>
<circle cx="26.8835" cy="26.8731" r="2" stroke="white"/>
<circle cx="21.1454" cy="26.8731" r="2" stroke="white"/>
<circle cx="21.1454" cy="21.135" r="2" stroke="white"/>
</svg>
