<?xml version="1.0" encoding="UTF-8" standalone="no"?>
<!DOCTYPE svg PUBLIC "-//W3C//DTD SVG 1.1//EN" "http://www.w3.org/Graphics/SVG/1.1/DTD/svg11.dtd">
<svg width="100%" height="100%" viewBox="0 0 48 48" version="1.1" xmlns="http://www.w3.org/2000/svg" xmlns:xlink="http://www.w3.org/1999/xlink" xml:space="preserve" xmlns:serif="http://www.serif.com/" style="fill-rule:evenodd;clip-rule:evenodd;stroke-linecap:round;stroke-linejoin:round;">
    <g transform="matrix(0.24,0,0,0.24,24,24)">
        <g transform="matrix(1,0,0,1,-100,-100)">
            <g transform="matrix(4.166667,0,0,4.166667,0,0)">
                <path d="M42.5,9.5L42.5,38.5C42.5,40.708 40.708,42.5 38.5,42.5L9.5,42.5C7.292,42.5 5.5,40.708 5.5,38.5L5.5,9.5C5.5,7.292 7.292,5.5 9.5,5.5L38.5,5.5C40.708,5.5 42.5,7.292 42.5,9.5Z" style="fill:none;stroke:white;stroke-width:1px;"/>
            </g>
        </g>
    </g>
    <path d="M7.751,20.005L7.751,16.032L11.666,16.032" style="fill:none;stroke:white;stroke-width:1px;stroke-miterlimit:1.5;"/>
    <g transform="matrix(-1,-0,0,-1,48.172557,46.956687)">
        <path d="M7.751,20.005L7.751,16.032L11.666,16.032" style="fill:none;stroke:white;stroke-width:1px;stroke-miterlimit:1.5;"/>
    </g>
    <g transform="matrix(1,0,0,1,0.335859,-0.08405)">
        <g transform="matrix(1,0,0,1,-206.907872,-21.087654)">
            <path d="M217.204,48.65L217.204,40.65L222.504,48.65L222.504,40.65" style="fill:none;fill-rule:nonzero;stroke:white;stroke-width:1px;"/>
        </g>
        <g transform="matrix(1,0,0,1,-110.010379,-37.087607)">
            <path d="M131.572,63.641C131.227,64.244 130.578,64.65 129.834,64.65L129.834,64.65C128.729,64.65 127.834,63.755 127.834,62.65L127.834,61.35C127.834,60.245 128.729,59.35 129.834,59.35L129.834,59.35C130.938,59.35 131.834,60.245 131.834,61.35L131.834,62L127.834,62" style="fill:none;fill-rule:nonzero;stroke:white;stroke-width:1px;"/>
        </g>
        <g transform="matrix(1,0,0,1,1.22542,0.087392)">
            <g transform="matrix(1,0,0,1,-255.958805,-37.175012)">
                <path d="M279.834,57.7L279.834,63.65C279.834,64.202 280.282,64.65 280.834,64.65L281.134,64.65" style="fill:none;fill-rule:nonzero;stroke:white;stroke-width:1px;"/>
            </g>
            <g transform="matrix(1,0,0,1,-255.958805,-37.175012)">
                <path d="M278.784,59.35L280.884,59.35" style="fill:none;fill-rule:nonzero;stroke:white;stroke-width:1px;"/>
            </g>
        </g>
        <g transform="matrix(1,0,0,1,5.802413,0.087392)">
            <g transform="matrix(1,0,0,1,-255.958805,-37.175012)">
                <path d="M279.834,57.7L279.834,63.65C279.834,64.202 280.282,64.65 280.834,64.65L281.134,64.65" style="fill:none;fill-rule:nonzero;stroke:white;stroke-width:1px;"/>
            </g>
            <g transform="matrix(1,0,0,1,-255.958805,-37.175012)">
                <path d="M278.784,59.35L280.884,59.35" style="fill:none;fill-rule:nonzero;stroke:white;stroke-width:1px;"/>
            </g>
        </g>
        <g transform="matrix(1,0,0,1,-194.629398,-37.087607)">
            <path d="M227.834,61.35C227.834,60.245 228.729,59.35 229.834,59.35C230.938,59.35 231.834,60.245 231.834,61.35L231.834,62.65C231.834,63.755 230.938,64.65 229.834,64.65C228.729,64.65 227.834,63.755 227.834,62.65L227.834,61.35Z" style="fill:none;fill-rule:nonzero;stroke:white;stroke-width:1px;"/>
        </g>
    </g>
</svg>
