<?xml version="1.0" encoding="UTF-8" standalone="no"?>
<!DOCTYPE svg PUBLIC "-//W3C//DTD SVG 1.1//EN" "http://www.w3.org/Graphics/SVG/1.1/DTD/svg11.dtd">
<svg width="100%" height="100%" viewBox="0 0 48 48" version="1.1" xmlns="http://www.w3.org/2000/svg" xmlns:xlink="http://www.w3.org/1999/xlink" xml:space="preserve" xmlns:serif="http://www.serif.com/" style="fill-rule:evenodd;clip-rule:evenodd;stroke-linecap:round;stroke-linejoin:round;">
    <g transform="matrix(0.24,0,0,0.24,24,24)">
        <g transform="matrix(1,0,0,1,-100,-100)">
            <g transform="matrix(4.166667,0,0,4.166667,0,0)">
                <path d="M42.5,9.5L42.5,38.5C42.5,40.708 40.708,42.5 38.5,42.5L9.5,42.5C7.292,42.5 5.5,40.708 5.5,38.5L5.5,9.5C5.5,7.292 7.292,5.5 9.5,5.5L38.5,5.5C40.708,5.5 42.5,7.292 42.5,9.5Z" style="fill:none;stroke:white;stroke-width:1px;"/>
            </g>
        </g>
        <g transform="matrix(4.234479,0,0,4.933665,-100.756092,-109.134133)">
            <ellipse cx="23.865" cy="16.031" rx="12.716" ry="4.622" style="fill:none;stroke:white;stroke-width:0.91px;stroke-miterlimit:1.5;"/>
        </g>
        <g transform="matrix(4.166667,0,0,4.166667,-100,-100)">
            <path d="M11.15,22.262C25.896,29.27 34.631,23.185 36.147,22.677C41.405,20.916 34.603,38.293 24.072,37.944C10.12,37.482 9.23,21.35 11.15,22.262Z" style="fill:none;stroke:white;stroke-width:1px;stroke-miterlimit:1.5;"/>
        </g>
    </g>
</svg>
