<?xml version="1.0" encoding="UTF-8" standalone="no"?>
<!DOCTYPE svg PUBLIC "-//W3C//DTD SVG 1.1//EN" "http://www.w3.org/Graphics/SVG/1.1/DTD/svg11.dtd">
<svg width="100%" height="100%" viewBox="0 0 48 48" version="1.1" xmlns="http://www.w3.org/2000/svg" xmlns:xlink="http://www.w3.org/1999/xlink" xml:space="preserve" xmlns:serif="http://www.serif.com/" style="fill-rule:evenodd;clip-rule:evenodd;stroke-linecap:round;stroke-linejoin:round;">
    <g transform="matrix(0.24,0,0,0.24,24,24)">
        <g transform="matrix(1,0,0,1,-100,-100)">
            <g transform="matrix(4.166667,0,0,4.166667,0,0)">
                <path d="M42.5,9.5L42.5,38.5C42.5,40.708 40.708,42.5 38.5,42.5L9.5,42.5C7.292,42.5 5.5,40.708 5.5,38.5L5.5,9.5C5.5,7.292 7.292,5.5 9.5,5.5L38.5,5.5C40.708,5.5 42.5,7.292 42.5,9.5Z" style="fill:none;stroke:white;stroke-width:1px;"/>
            </g>
        </g>
        <g transform="matrix(1.155424,0,0,1.155424,-0.000001,0.000008)">
            <g transform="matrix(0.210417,0,0,0.210417,-163.767426,-69.287112)">
                <path d="M913.75,309.97C919.22,327 922.18,345.17 922.18,364.02C922.18,461.51 843.15,540.55 745.65,540.55C648.15,540.55 569.12,461.52 569.12,364.02C569.12,276.39 632.98,203.67 716.69,189.85L765.99,89.94C632.89,96.36 526.94,206.31 526.94,341C526.94,475.69 639.48,592.36 778.3,592.36C917.12,592.36 1029.66,479.82 1029.66,341C1029.66,282.15 1009.43,228.02 975.56,185.19L913.75,309.96L913.75,309.97Z" style="fill:none;fill-rule:nonzero;stroke:white;stroke-width:17.14px;stroke-linecap:butt;stroke-miterlimit:2;"/>
            </g>
            <g transform="matrix(0.210417,0,0,0.210417,-163.767426,-69.287112)">
                <path d="M671.98,569.53C704.27,584.63 740.3,593.06 778.3,593.06C917.12,593.06 1029.66,480.52 1029.66,341.7C1029.66,282.65 1009.3,228.36 975.22,185.46L914.4,309.29C928.78,327.09 937.65,358.89 937.65,389.85C937.65,494.2 853.75,581.78 749.4,581.78C722.12,581.78 697.13,578.33 673.44,570.05L671.98,569.52L671.98,569.53Z" style="fill:none;fill-rule:nonzero;stroke:white;stroke-width:17.14px;stroke-linecap:butt;stroke-miterlimit:2;"/>
            </g>
            <g transform="matrix(0.210417,0,0,0.210417,-163.767426,-69.287112)">
                <path d="M823.34,205.2L883.48,73.45C884.27,71.71 884.13,69.69 883.1,68.09C882.07,66.48 880.29,65.51 878.38,65.51L815.61,65.51C813.41,65.51 811.42,66.79 810.51,68.79L756.18,186.95C780.21,188.54 802.91,194.94 823.35,205.2L823.34,205.2Z" style="fill:none;fill-rule:nonzero;stroke:white;stroke-width:17.14px;stroke-linecap:butt;stroke-miterlimit:2;"/>
            </g>
            <g transform="matrix(0.210417,0,0,0.210417,-163.767426,-69.287112)">
                <path d="M983.31,68.09C982.28,66.48 980.5,65.51 978.59,65.51L915.82,65.51C913.62,65.51 911.63,66.79 910.72,68.79L843,216.68C863.76,230.72 881.35,249.08 894.52,270.45L983.69,73.45C984.48,71.71 984.34,69.69 983.31,68.09Z" style="fill:none;fill-rule:nonzero;stroke:white;stroke-width:17.14px;stroke-linecap:butt;stroke-miterlimit:2;"/>
            </g>
        </g>
    </g>
</svg>
