<svg width="48" height="48" viewBox="0 0 48 48" fill="none" xmlns="http://www.w3.org/2000/svg">
<path d="M9.39622 21.2477H12.5182" stroke="white" stroke-linecap="round" stroke-linejoin="round"/>
<path d="M9.39622 15.2477H12.5182" stroke="white" stroke-linecap="round" stroke-linejoin="round"/>
<path d="M9.39622 27.2477H12.5182" stroke="white" stroke-linecap="round" stroke-linejoin="round"/>
<path d="M38.4008 25.3699V13.5983C38.4008 12.4938 37.5054 11.5983 36.4008 11.5983H20.6026C19.498 11.5983 18.6026 12.4938 18.6026 13.5983V29.3965C18.6026 30.5011 19.498 31.3965 20.6026 31.3965H21.1754M38.4008 25.3699V29.3965C38.4008 30.5011 37.5054 31.3965 36.4008 31.3965H21.1754M38.4008 25.3699L33.9867 21.3616C33.199 20.6464 31.9893 20.673 31.2339 21.4221L21.1754 31.3965" stroke="white" stroke-linecap="round" stroke-linejoin="round"/>
<path d="M18.5812 16.085H16.1009C14.9963 16.085 14.1009 16.9804 14.1009 18.085V33.8832C14.1009 34.9877 14.9963 35.8832 16.1009 35.8832H31.8991C33.0037 35.8832 33.8991 34.9877 33.8991 33.8832V31.3744" stroke="white" stroke-linecap="round" stroke-linejoin="round"/>
<circle cx="25.7802" cy="18.2477" r="2.5" stroke="white"/>
</svg>
