<?xml version="1.0" encoding="UTF-8" standalone="no"?>
<!DOCTYPE svg PUBLIC "-//W3C//DTD SVG 1.1//EN" "http://www.w3.org/Graphics/SVG/1.1/DTD/svg11.dtd">
<svg width="100%" height="100%" viewBox="0 0 48 48" version="1.1" xmlns="http://www.w3.org/2000/svg" xmlns:xlink="http://www.w3.org/1999/xlink" xml:space="preserve" xmlns:serif="http://www.serif.com/" style="fill-rule:evenodd;clip-rule:evenodd;stroke-linecap:round;stroke-linejoin:round;stroke-miterlimit:1.5;">
    <g transform="matrix(1,0,0,1,-0.723536,0)">
        <path d="M22.488,19.451L30.582,15.184" style="fill:none;stroke:white;stroke-width:1px;"/>
    </g>
    <g transform="matrix(1,0,0,1,-0.723536,-2.501719)">
        <path d="M22.488,19.451L30.582,15.184" style="fill:none;stroke:white;stroke-width:1px;"/>
    </g>
    <g transform="matrix(1,0,0,1,-0.723536,-7.554209)">
        <path d="M22.488,19.451L30.582,15.184" style="fill:none;stroke:white;stroke-width:1px;"/>
    </g>
    <g transform="matrix(1.542335,0,0,1.542335,-15.114535,-14.457707)">
        <path d="M22.488,19.451L30.582,15.184" style="fill:none;stroke:white;stroke-width:0.65px;"/>
    </g>
    <g transform="matrix(0.24,0,0,0.24,24,24)">
        <g transform="matrix(1,0,0,1,-100,-100)">
            <g transform="matrix(4.166667,0,0,4.166667,0,0)">
                <path d="M42.5,9.5L42.5,38.5C42.5,40.708 40.708,42.5 38.5,42.5L9.5,42.5C7.292,42.5 5.5,40.708 5.5,38.5L5.5,9.5C5.5,7.292 7.292,5.5 9.5,5.5L38.5,5.5C40.708,5.5 42.5,7.292 42.5,9.5Z" style="fill:none;stroke:white;stroke-width:1px;stroke-miterlimit:4;"/>
            </g>
        </g>
        <g transform="matrix(4.166667,0,0,4.166667,-100,-100)">
            <path d="M24,22.512C42.689,11.998 33.958,44.289 24,38.945" style="fill:none;stroke:white;stroke-width:1px;"/>
        </g>
        <g transform="matrix(-4.166667,0,0,4.166667,100.000008,-100)">
            <path d="M24,22.512C42.689,11.998 33.958,44.289 24,38.945" style="fill:none;stroke:white;stroke-width:1px;"/>
        </g>
    </g>
</svg>
