<svg width="48" height="48" version="1.1" viewBox="0 0 48 48" xmlns="http://www.w3.org/2000/svg">
  <defs><style>.a{fill:none;stroke:#fff;stroke-linecap:round;stroke-linejoin:round;}</style></defs>
  <path class="a" d="m22.6 25.5c0.862 2.05 2.87 3.39 5.1 3.39 3.05 0 5.53-2.48 5.53-5.53s-2.48-5.53-5.53-5.53l-3e-3 0.01c-2.04 2.46e-4 -3.94 0.96-4.9 2.76"/>
  <path class="a" d="m16.7 29.8c0.41-0.461 0.882-0.858 1.35-1.26 1.43-1.15 3.01-2.1 4.55-3.08 0.329-0.31 0.538-0.894 0.617-1.57"/>
  <path class="a" d="m22.8 20.6c-0.348-0.554-0.992-0.545-1.69-0.468-0.355 0.0534-0.705 0.115-1.05 0.186-2.91 0.529-5.44 1.94-7.54 3.99-0.507-1.13-1.24-2.04-2.31-1.78-1.05 0.235 2.07 7.68-4.3 9.9-0.0587 0.953 1.09 0.787 1.7 1l-3.7 3.4"/>
  <path class="a" d="m18 28.6c-0.434 1.54-1.22 3.19 0.5 3.8l12.8 3.06c0.863 0.224 1.83-0.516 2-1.2l0.3-1.26m0.639-2.53 0.81-3.27m0.6-2.4 0.8-3.1m0.578-2.58 2.57-10.3c0.158-0.52-0.213-1.81-1.1-2.1l-11.8-2.9c-1.3-0.344-2.49-0.353-3 1.3l-3.65 15.1"/>
  <path class="a" d="m23.2 44.9 1.73-3.81c0.252 0.887 0.327 2.28 0.924 2.17 0.525 0.154 1.19-3.88 2.59-5.69 0.194 0.835 0.193 1.96 0.983 1.91 0.421 0.124 0.0267-2.5 0.714-3.41 0.932-0.0284 2.6-0.93 3.32-1.16 0.74-0.04 1 0.124 1.66-0.142 1.17-0.464 1.93-1.6 2.1-2.58 0.201-1.08-0.013-2.76-1.86-3.29 2.14 0.637 3.36-1.16 3.58-2.4 0.219-1.23-0.732-2.83-2.18-3.11 1.56 0.206 3.02-0.785 3.2-2.45 0.181-1.67-0.853-3.01-1.95-3.29"/>
  <path class="a" d="m34.1 33.2c0.958 0.446 1.34-2.39 0.908-2.54l-0.761-0.114c-1.18-0.159-2.5-0.431-2.74 0.203-0.153 0.531 0.889 1.75 2.13 2.27z"/>
  <path class="a" d="m35.9 27.5c0.875 0.292 1.44-2.44 0.537-2.59-0.295-0.0313-0.6-0.0523-0.892-0.0838-0.975-0.0413-1.96 0.119-2.58 0.655 0.0123 0.74 0.957 1.28 2 1.69 0.297 0.142 0.617 0.242 0.928 0.33z"/>
  <path class="a" d="m37.4 19.2c-0.129 0.0182-0.268 0.033-0.412 0.0469 0 0-3.1 0.125-3.13 1.02 0.154 0.698 1.45 0.866 2.54 1.36-0.0104 0.0311 0.316 0.126 0.701 0.412 0.675 0.319 1.61-2.78 0.305-2.84z"/>
  <path class="a" d="m23.2 23.8c1.27-0.675 2.43-1.67 2.17-2.18-0.4-0.875-1.37-1.05-2.57-0.98l-2.01 0.298c-0.57 1.33 0.129 2.57 0.797 3.55z" style="fill:none;stroke-linecap:round;stroke-linejoin:round;stroke-width:.948;stroke:#fff"/>
  <path class="a" d="m25.9 20.3 3.66 5.84"/>
  <path class="a" d="m24.7 25 6.03-3.59"/>
  <path class="a" d="m29 6.7 5.14 1.34"/>
</svg>
