<?xml version="1.0" encoding="UTF-8" standalone="no"?>
<!-- Created with Inkscape (http://www.inkscape.org/) -->

<svg
   width="48"
   height="48"
   viewBox="0 0 48 48"
   version="1.1"
   id="svg1"
   xml:space="preserve"
   xmlns="http://www.w3.org/2000/svg"
   xmlns:svg="http://www.w3.org/2000/svg"><defs
     id="defs1"><style
       id="style1">
      .cls-1 {
        fill: none;
        stroke: #fff;
        stroke-linecap: round;
        stroke-linejoin: round;
      }
    </style><style
       id="style1-3">
      .cls-1 {
        fill: none;
        stroke: #fff;
        stroke-linecap: round;
        stroke-linejoin: round;
      }
    </style><style
       id="style1-1">
      .cls-1 {
        fill: none;
        stroke: #fff;
        stroke-linecap: round;
        stroke-linejoin: round;
      }
    </style><style
       id="style1-0">.a{fill:none;stroke:#fff;stroke-linecap:round;stroke-linejoin:round;}</style><style
       id="style1-4">.a{fill:none;stroke:#fff;stroke-linecap:round;stroke-linejoin:round;}</style></defs><g
     id="layer1"><path
       style="display:inline;fill:none;stroke:#ffffff;stroke-width:1;stroke-linecap:round;stroke-linejoin:round;stroke-dasharray:none;stroke-opacity:1"
       d="M 41.32899,16.677522 H 34.807643"
       id="path20" /><path
       style="display:inline;fill:none;stroke:#ffffff;stroke-width:1;stroke-linecap:round;stroke-linejoin:round;stroke-dasharray:none;stroke-opacity:1"
       d="M 6.6710098,31.635179 H 12.925489"
       id="path21" /><path
       class="r"
       d="m 22.552117,19.122825 c 0.364288,0.315596 0.717757,0.46021 1.601058,0.46021 h 0.151757 c 0.817066,0 1.479433,-0.684809 1.479433,-1.529563 v -3e-6 c 0,-0.844754 -0.662367,-1.529562 -1.479433,-1.529562 h -1.752815 v -2.396843 h 3.232248"
       id="path22"
       style="display:inline;fill:none;stroke:#ffffff;stroke-width:0.999999;stroke-linecap:round;stroke-linejoin:round" /><path
       class="r"
       d="m 22.552117,33.863813 c 0.364288,0.315596 0.717757,0.46021 1.601058,0.46021 h 0.151757 c 0.817066,0 1.479433,-0.684809 1.479433,-1.529563 v -3e-6 c 0,-0.844754 -0.662367,-1.529562 -1.479433,-1.529562 h -1.752815 v -2.396843 h 3.232248"
       id="path23"
       style="display:inline;fill:none;stroke:#ffffff;stroke-width:0.999999;stroke-linecap:round;stroke-linejoin:round" /><path
       id="path24"
       d="m 15.316827,31.722475 4.328557,7.497282 h 8.657115 l 4.328558,-7.497282 -4.328558,-7.497281 h -8.657115 l -4.328557,-7.547672 4.328557,-7.4972819 h 8.657115 l 4.328558,7.4972819"
       style="fill:none;stroke:#ffffff;stroke-width:1;stroke-linecap:round;stroke-linejoin:round;stroke-dasharray:none;stroke-opacity:1" /></g></svg>
