<svg width="48" height="48" viewBox="0 0 48 48" fill="none" xmlns="http://www.w3.org/2000/svg">
<path d="M17.782 18.925L14.782 29.075" stroke="white" stroke-linecap="round" stroke-linejoin="round"/>
<path d="M17.782 32.787L14.782 42.937" stroke="white" stroke-linecap="round" stroke-linejoin="round"/>
<path d="M27.1587 32.787L30.1587 42.937" stroke="white" stroke-linecap="round" stroke-linejoin="round"/>
<path d="M22.2622 20L22.2945 30.15" stroke="white" stroke-linecap="round" stroke-linejoin="round"/>
<path d="M10.1201 6.41052L10.1201 30.8304" stroke="white" stroke-linecap="round" stroke-linejoin="round"/>
<path d="M27.1587 20C27.1587 20 29.1587 22.2732 29.1587 25.075C29.1587 27.8768 27.1587 30.15 27.1587 30.15" stroke="white" stroke-linecap="round" stroke-linejoin="round"/>
<path d="M39.9839 20C39.9839 20 41.9839 22.2732 41.9839 25.075C41.9839 27.8768 39.9839 30.15 39.9839 30.15" stroke="white" stroke-linecap="round" stroke-linejoin="round"/>
<path d="M32.4059 31.2062H37.4059" stroke="white" stroke-linecap="round" stroke-linejoin="round"/>
<path d="M27.1587 18.0221L37.4059 18.0221" stroke="white" stroke-linecap="round" stroke-linejoin="round"/>
<path d="M22.2945 8.34454H22.2945C20.8309 8.34454 19.6445 9.53099 19.6445 10.9945V13.6945C19.6445 15.1581 20.8309 16.3445 22.2945 16.3445H22.2945C23.758 16.3445 24.9445 15.1581 24.9445 13.6945V10.9945C24.9445 9.53099 23.758 8.34454 22.2945 8.34454Z" stroke="white" stroke-linecap="round" stroke-linejoin="round"/>
<path d="M7.03633 25.075H13.2038" stroke="white" stroke-linecap="round" stroke-linejoin="round"/>
<path d="M34.7826 27.2451L32.6614 25.124C32.4923 24.9548 32.3795 24.7581 32.3231 24.5339C32.268 24.3097 32.2687 24.0869 32.3251 23.8654C32.3815 23.6426 32.4936 23.4486 32.6614 23.2835C32.8334 23.1143 33.0294 23.0022 33.2495 22.9472C33.471 22.8908 33.6917 22.8908 33.9118 22.9472C34.1333 23.0036 34.33 23.1157 34.5019 23.2835L34.7826 23.5559L35.0632 23.2835C35.2365 23.1157 35.4332 23.0036 35.6533 22.9472C35.8734 22.8908 36.0935 22.8908 36.3136 22.9472C36.535 23.0022 36.7317 23.1143 36.9037 23.2835C37.0715 23.4486 37.1836 23.6426 37.24 23.8654C37.2964 24.0869 37.2964 24.3097 37.24 24.5339C37.185 24.7581 37.0729 24.9548 36.9037 25.124L34.7826 27.2451Z" stroke="white" stroke-linejoin="round"/>
</svg>
