<?xml version="1.0" encoding="UTF-8" standalone="no"?>
<!-- Created with Inkscape (http://www.inkscape.org/) -->

<svg
   width="48"
   height="48"
   viewBox="0 0 48 48"
   version="1.1"
   id="svg1"
   xml:space="preserve"
   inkscape:version="1.4.3 (0d15f75042, 2025-12-25)"
   sodipodi:docname="sumup_local.svg"
   xmlns:inkscape="http://www.inkscape.org/namespaces/inkscape"
   xmlns:sodipodi="http://sodipodi.sourceforge.net/DTD/sodipodi-0.dtd"
   xmlns:xlink="http://www.w3.org/1999/xlink"
   xmlns="http://www.w3.org/2000/svg"
   xmlns:svg="http://www.w3.org/2000/svg"><sodipodi:namedview
     id="namedview1"
     pagecolor="#4c4c4c"
     bordercolor="#000000"
     borderopacity="0.25"
     inkscape:showpageshadow="2"
     inkscape:pageopacity="0.0"
     inkscape:pagecheckerboard="0"
     inkscape:deskcolor="#d1d1d1"
     inkscape:document-units="px"
     inkscape:zoom="11.958333"
     inkscape:cx="19.233449"
     inkscape:cy="30.522648"
     inkscape:window-width="1256"
     inkscape:window-height="1331"
     inkscape:window-x="26"
     inkscape:window-y="23"
     inkscape:window-maximized="0"
     inkscape:current-layer="layer1" /><defs
     id="defs1"><color-profile
       name="ASUSTek-COMPUTER-INC-27"
       xlink:href="../../../.local/share/icc/edid-81a81f51c754fb3d1eec6c89e317bb2d.icc"
       id="color-profile2" /><style
       id="style1">.b{fill:none;stroke:#fff;stroke-linecap:round;stroke-linejoin:round;}</style></defs><g
     inkscape:label="Ebene 1"
     inkscape:groupmode="layer"
     id="layer1"><path
       class="b"
       d="m 17.74881,22.704395 c -4.45332,-4.436424 -4.45332,-11.629592 0,-16.066017 4.453321,-4.4364242 11.674649,-4.4364242 16.127969,0 z m -3.625589,8.657227 c 4.45332,4.436424 11.674648,4.436424 16.127969,0 4.45332,-4.436425 4.45332,-11.629593 0,-16.066017 z"
       id="path1"
       style="stroke-width:0.80456" /><g
       id="g2"
       transform="translate(-1.2099574)"><polyline
         class="r"
         points="197.37703787 40.65004656 197.37703787 48.65004656 201.37703787 48.65004656"
         id="polyline1"
         style="fill:none;stroke:#ffffff;stroke-linecap:round;stroke-linejoin:round"
         transform="translate(-189.04564,-5.5843453)" /><path
         class="r"
         d="m 16.108178,39.765701 c 0,-1.104569 0.89543,-2 2,-2 1.10457,0 2,0.895431 2,2 v 1.3 c 0,1.104569 -0.89543,2 -2,2 -1.10457,0 -2,-0.895431 -2,-2 z"
         id="path306"
         style="fill:none;stroke:#ffffff;stroke-linecap:round;stroke-linejoin:round" /><path
         class="r"
         d="m 27.753292,42.058354 c -0.34475,0.601851 -0.99335,1.007347 -1.73667,1.007347 v 0 c -1.10457,0 -2,-0.89543 -2,-1.999998 v -1.300004 c 0,-1.104568 0.89543,-1.999998 2,-1.999998 v 0 c 0.74188,0 1.38942,0.403935 1.73467,1.003869"
         id="path61"
         style="fill:none;stroke:#ffffff;stroke-linecap:round;stroke-linejoin:round" /><g
         id="g1"
         transform="translate(0.16173531,2.2656982)"><path
           class="r"
           d="m 35.500001,38.800004 c 0,1.104568 -0.89543,1.999998 -1.999999,1.999998 h -4e-6 C 32.39543,40.800002 31.5,39.904572 31.5,38.800004 V 37.5 c 0,-1.104568 0.89543,-1.999998 1.999998,-1.999998 h 4e-6 c 1.104569,0 1.999999,0.89543 1.999999,1.999998"
           id="path68"
           style="fill:none;stroke:#ffffff;stroke-linecap:round;stroke-linejoin:round" /><line
           class="r"
           x1="35.500004"
           y1="40.800003"
           x2="35.500004"
           y2="35.5"
           id="line68"
           style="fill:none;stroke:#ffffff;stroke-linecap:round;stroke-linejoin:round" /></g><path
         class="r"
         d="m 40.788517,35.065699 v 7.000002 c 0,0.552285 0.44771,1 1,1 h 0.3"
         id="path57"
         style="fill:none;stroke:#ffffff;stroke-linecap:round;stroke-linejoin:round" /></g></g></svg>
