<svg width="48" height="48" viewBox="0 0 48 48" fill="none" xmlns="http://www.w3.org/2000/svg">
<path d="M34.5402 18.4444H36.105" stroke="white" stroke-linecap="round" stroke-linejoin="round"/>
<path d="M36.9402 20.8444H34.5402V16.0444H36.9402" stroke="white" stroke-linecap="round" stroke-linejoin="round"/>
<path d="M34.5402 27.1025H36.105" stroke="white" stroke-linecap="round" stroke-linejoin="round"/>
<path d="M36.9402 29.5025H34.5402V24.7025H36.9402" stroke="white" stroke-linecap="round" stroke-linejoin="round"/>
<path d="M15.1917 24.7025L13.9917 29.5025L12.7917 24.7025L11.5917 29.5025L10.3917 24.7025" stroke="white" stroke-linecap="round" stroke-linejoin="round"/>
<path d="M11.2017 16.0444H14.3817" stroke="white" stroke-linecap="round" stroke-linejoin="round"/>
<path d="M12.7917 20.8444V16.0444" stroke="white" stroke-linecap="round" stroke-linejoin="round"/>
<path d="M20.5475 16.0444V20.8444" stroke="white" stroke-linecap="round" stroke-linejoin="round"/>
<path d="M20.5475 24.7025V29.5025" stroke="white" stroke-linecap="round" stroke-linejoin="round"/>
<path d="M25.5741 20.8391V16.0444L27.9741 20.8444L30.3741 16.0517V20.8444" stroke="white" stroke-linecap="round" stroke-linejoin="round"/>
<path d="M26.4792 28.9765C26.7735 29.3597 27.1426 29.5025 27.6561 29.5025H28.3667C29.028 29.5025 29.5641 28.9664 29.5641 28.305V28.2999C29.5641 27.6386 29.028 27.1025 28.3667 27.1025H27.5828C26.9208 27.1025 26.3841 26.5658 26.3841 25.9037C26.3841 25.2403 26.922 24.7025 27.5854 24.7025H28.2922C28.8056 24.7025 29.1747 24.8452 29.4691 25.2284" stroke="white" stroke-linecap="round" stroke-linejoin="round"/>
</svg>
