<?xml version="1.0" encoding="UTF-8" standalone="no"?>
<!DOCTYPE svg PUBLIC "-//W3C//DTD SVG 1.1//EN" "http://www.w3.org/Graphics/SVG/1.1/DTD/svg11.dtd">
<svg width="100%" height="100%" viewBox="0 0 48 48" version="1.1" xmlns="http://www.w3.org/2000/svg" xmlns:xlink="http://www.w3.org/1999/xlink" xml:space="preserve" xmlns:serif="http://www.serif.com/" style="fill-rule:evenodd;clip-rule:evenodd;stroke-linecap:round;stroke-linejoin:round;">
    <g transform="matrix(0.24,0,0,0.24,24,24)">
        <g transform="matrix(1,0,0,1,-100,-100)">
            <g transform="matrix(4.166667,0,0,4.166667,0,0)">
                <path d="M42.5,9.5L42.5,38.5C42.5,40.708 40.708,42.5 38.5,42.5L9.5,42.5C7.292,42.5 5.5,40.708 5.5,38.5L5.5,9.5C5.5,7.292 7.292,5.5 9.5,5.5L38.5,5.5C40.708,5.5 42.5,7.292 42.5,9.5Z" style="fill:none;stroke:white;stroke-width:1px;"/>
            </g>
        </g>
        <g transform="matrix(1.125211,0,0,1.125211,5.026004,5.170208)">
            <g transform="matrix(4.166667,0,0,4.166667,-100,-100)">
                <path d="M8.191,27.205L8.191,24.605" style="fill:none;stroke:white;stroke-width:0.89px;stroke-miterlimit:1.5;"/>
            </g>
            <g transform="matrix(4.166667,0,0,4.166667,-100,-100)">
                <path d="M8.191,25.905L17.749,23.093C17.749,23.093 31.495,23.03 33.98,23.093C38.844,23.218 38.943,28.494 33.98,28.525C30.811,28.544 17.937,28.525 17.937,28.525L8.191,25.905Z" style="fill:none;stroke:white;stroke-width:0.89px;stroke-miterlimit:1.5;"/>
            </g>
            <g transform="matrix(4.166667,0,0,4.166667,-100,-100)">
                <path d="M10.309,25.165L10.905,21.932L13.071,21.932L13.071,24.291" style="fill:none;stroke:white;stroke-width:0.89px;stroke-miterlimit:1.5;"/>
            </g>
            <g transform="matrix(4.166667,0,0,-4.166667,-100,115.402298)">
                <path d="M10.309,25.165L10.905,21.932L13.071,21.932L13.071,24.291" style="fill:none;stroke:white;stroke-width:0.89px;stroke-miterlimit:1.5;"/>
            </g>
            <g transform="matrix(4.166667,0,0,4.166667,-100,-100)">
                <path d="M23.494,23.065L24.97,20.959L30.966,20.959L32.63,23.065" style="fill:none;stroke:white;stroke-width:0.89px;stroke-miterlimit:1.5;"/>
            </g>
            <g transform="matrix(4.166667,0,0,4.166667,-100,-100)">
                <path d="M27.764,20.959L27.764,19.358" style="fill:none;stroke:white;stroke-width:0.89px;stroke-miterlimit:1.5;"/>
            </g>
            <g transform="matrix(4.166667,0,0,4.166667,-100,-100)">
                <path d="M29.899,20.959L29.899,17.254C29.899,17.254 29.993,16.061 31.06,16.03" style="fill:none;stroke:white;stroke-width:0.89px;stroke-miterlimit:1.5;"/>
            </g>
        </g>
    </g>
</svg>
