<?xml version="1.0" encoding="UTF-8"?>
<svg data-name="Layer 1" version="1.1" viewBox="0 0 48 48" xml:space="preserve" xmlns="http://www.w3.org/2000/svg"><defs><style>
      .cls-1 {
        fill: none;
        stroke: #fff;
        stroke-linecap: round;
        stroke-linejoin: round;
      }
    </style></defs><g fill="none" stroke="#fff" stroke-linecap="round" stroke-linejoin="round"><path d="m14.682 8.2735s-11.529 3.6632-11.582 8.3707c-0.047058 4.1559 8.3482 5.4711 11.586 8.0773 3.0565 2.4606 4.6206 5.008 8.1589 6.2008 7.8929 1.9838 15.03-1.4636 21.985-4.4806"/><path d="m18.041 27.791s1.4407 1.2887 2.0797 2.0109c2.4587 2.7787 4.6749 7.9555 6.7053 8.8845 5.1141 2.34 18.125-4.0137 18.125-4.0137"/><path d="m8.6768 21.732s1.9556 0.94988 2.9516 1.0198c0.99598 0.0699 2.3805-0.15772 2.8085-0.57141 1.192-1.1522-0.29734-3.7044 0.85087-4.9003 0.79119-0.82403 2.3992-1.3563 3.35-0.72308 0.92126 0.61358 1.0174 2.2381 0.60458 3.2652-0.6038 1.5023-3.3245 1.3396-3.9436 2.8356-0.19235 0.46481-0.20287 1.5669 0.06889 2.2753 0.25231 0.65773 1.3652 1.6132 1.3652 1.6132"/></g></svg>
